<svg width="88" height="88" viewBox="0 0 88 88" fill="none" xmlns="http://www.w3.org/2000/svg">
<path fill-rule="evenodd" clip-rule="evenodd" d="M43.957 0.171875C68.125 0.171875 87.742 19.7889 87.742 43.9609C87.742 68.1289 68.125 87.7459 43.957 87.7459C19.789 87.7459 0.167969 68.1289 0.167969 43.9609C0.167969 19.7889 19.789 0.171875 43.957 0.171875ZM5.78097 29.9299C4.17547 34.3049 3.29267 39.0315 3.29267 43.9609C3.29267 48.9218 4.1872 53.6757 5.81607 58.0779C5.94498 58.0388 6.07388 58.0232 6.20669 58.0232H23.5507C22.8163 53.617 22.4218 48.8826 22.4218 43.9612C22.4218 39.0706 22.8124 34.3753 23.5351 30.0002H6.23409C6.08175 30.0002 5.9294 29.9768 5.78097 29.9299ZM7.10127 61.1489C12.3474 72.3679 22.5623 80.8009 34.9063 83.6099C33.4649 82.2818 32.1016 80.6411 30.8516 78.7115C27.9493 74.231 25.6094 68.1765 24.1368 61.1495L7.10127 61.1489ZM53.0073 83.6099C65.3473 80.8013 75.5663 72.3679 80.8123 61.1489H63.7773C62.3046 68.1762 59.9648 74.2309 57.0625 78.7109C55.8125 80.6406 54.4487 82.2818 53.0073 83.6099ZM82.0933 58.0789C83.7261 53.6766 84.6167 48.9227 84.6167 43.9619C84.6167 39.0361 83.7417 34.3174 82.1323 29.9459C82.0073 29.9849 81.8666 30.0006 81.7299 30.0006H64.3779C65.1006 34.3756 65.4912 39.0709 65.4912 43.9616C65.4912 48.8835 65.0928 53.6178 64.3623 58.0236H81.7023C81.8351 58.0236 81.9683 58.0398 82.0933 58.0789ZM80.8589 26.8759C75.6284 15.6099 65.3899 7.13388 53.0109 4.30988C54.4523 5.63798 55.8117 7.27868 57.0617 9.20438C59.9797 13.7083 62.3273 19.8024 63.7961 26.8764L80.8589 26.8759ZM34.8979 4.30988C22.5229 7.13408 12.2809 15.6109 7.04987 26.8759H24.1159C25.5807 19.8017 27.9323 13.7079 30.8503 9.20388C32.1003 7.27808 33.4565 5.63798 34.8979 4.30988ZM26.6909 30.0009C25.9487 34.3603 25.5464 39.0556 25.5464 43.9619C25.5464 48.8994 25.9565 53.6338 26.7144 58.0239H34.066C29.6754 54.9106 26.8082 49.7856 26.8082 43.9969C26.8082 43.1375 27.5035 42.4344 28.3707 42.4344C29.2301 42.4344 29.9332 43.1375 29.9332 43.9969C29.9332 51.2157 35.3863 57.1769 42.3942 57.9699V55.634C36.7575 55.1965 32.3162 50.4856 32.3162 44.732V30.002L26.6909 30.0009ZM27.3198 61.1489C28.7026 67.477 30.8276 72.9299 33.4721 77.0119C36.0424 80.9728 39.0619 83.6252 42.394 84.2619V70.3749H36.1831C35.3159 70.3749 34.6206 69.6757 34.6206 68.8124C34.6206 67.9491 35.3159 67.2499 36.1831 67.2499H42.394V61.1483L27.3198 61.1489ZM45.5228 84.2619C48.8548 83.6252 51.8744 80.9689 54.4369 77.0119C57.0814 72.9299 59.2103 67.4767 60.5931 61.1489H45.5541V67.2505H51.8041C52.6713 67.2505 53.3666 67.9497 53.3666 68.813C53.3666 69.6763 52.6713 70.3755 51.8041 70.3755H45.5229L45.5228 84.2619ZM61.1988 58.0239C61.9527 53.6333 62.3668 48.8989 62.3668 43.9619C62.3668 39.0557 61.9644 34.3603 61.2223 30.0009H55.6676V44.7309C55.6676 50.5043 51.191 55.2349 45.5226 55.6409V57.9768C52.5656 57.2112 58.0536 51.2424 58.0536 43.9968C58.0536 43.1374 58.7567 42.4343 59.6161 42.4343C60.4794 42.4343 61.1786 43.1374 61.1786 43.9968C61.1786 49.7859 58.3114 54.9108 53.9208 58.0238L61.1988 58.0239ZM60.6128 26.8759C59.23 20.5009 57.0972 15.0049 54.437 10.9029C51.8745 6.94588 48.855 4.28957 45.5229 3.65287V17.6489C50.6284 18.0122 54.7651 21.8872 55.5349 26.8755L60.6128 26.8759ZM42.3938 3.65287C39.0618 4.28959 36.0422 6.93808 33.4719 10.9029C30.8117 15.0045 28.6828 20.5006 27.2961 26.8759H32.4484C33.2141 21.9071 37.3195 18.0517 42.3937 17.6532L42.3938 3.65287ZM35.4485 28.5589V44.7309C35.4485 48.7582 38.4876 52.0668 42.3938 52.5004C42.679 52.5316 42.9681 52.5472 43.2571 52.5472H44.7259C44.9954 52.5472 45.2611 52.5316 45.5228 52.5043C49.4603 52.1098 52.5423 48.7777 52.5423 44.7309V28.5509C52.5423 27.9767 52.4798 27.4181 52.3587 26.8751C51.6478 23.6173 48.9017 21.1212 45.5228 20.7813C45.2611 20.7578 44.9955 20.7422 44.7259 20.7422H43.2571C42.9681 20.7422 42.679 20.7578 42.3938 20.7891C39.0461 21.1563 36.3353 23.6368 35.6283 26.875C35.5072 27.418 35.4485 27.9769 35.4485 28.5589ZM46.7495 42.0319H41.2378C40.3706 42.0319 39.6753 41.3366 39.6753 40.4694C39.6753 39.61 40.3706 38.9069 41.2378 38.9069H46.7495C47.6128 38.9069 48.312 39.61 48.312 40.4694C48.312 41.3366 47.6128 42.0319 46.7495 42.0319ZM46.7495 35.9616H41.2378C40.3706 35.9616 39.6753 35.2624 39.6753 34.403C39.6753 33.5358 40.3706 32.8405 41.2378 32.8405H46.7495C47.6128 32.8405 48.312 33.5358 48.312 34.403C48.312 35.2624 47.6128 35.9616 46.7495 35.9616ZM46.7495 48.1096H41.2378C40.3706 48.1096 39.6753 47.4065 39.6753 46.5471C39.6753 45.6838 40.3706 44.9846 41.2378 44.9846H46.7495C47.6128 44.9846 48.312 45.6838 48.312 46.5471C48.312 47.4065 47.6128 48.1096 46.7495 48.1096ZM42.394 29.8866H41.2378C40.3706 29.8866 39.6753 29.1913 39.6753 28.3241C39.6753 27.6639 40.0816 27.1014 40.6558 26.8749C40.8355 26.8007 41.0308 26.7616 41.2378 26.7616H46.7495C46.9527 26.7616 47.148 26.8007 47.3277 26.8749C47.9058 27.1014 48.312 27.6639 48.312 28.3241C48.312 29.1913 47.6128 29.8866 46.7495 29.8866H45.5229V29.9999H42.394V29.8866Z" fill="black"/>
</svg>
